# xmcd CD database file
#
# Track frame offsets:
#	182
#	37132
#	62415
#	86940
#	98187
#	124462
#	147070
#	170542
#
# Disc length: 2422 seconds
#
# Revision: 0
# Processed by: cddbd v1.5.2PL0 Copyright (c) Steve Scherf et al.
# Submitted via: CDex 1.70beta2
#
DISCID=71097408
DTITLE=Laboratorium - Anatomy Lesson
DYEAR=1986
DGENRE=Jazz
TTITLE0=Lady On The Goat
TTITLE1=Make Up
TTITLE2=Lonely White Funk
TTITLE3=Room Nr 210
TTITLE4=Polish Calypso
TTITLE5=Baby Dreams
TTITLE6=Anatomy Lesson
TTITLE7=I'm So Glad, Punk Is Dead
EXTD=YEAR: 1986
EXTT0=
EXTT1=
EXTT2=
EXTT3=
EXTT4=
EXTT5=
EXTT6=
EXTT7=
PLAYORDER=
